PathFileType	4	(X/Y/Z)	s01c0102.trc
DataRate	CameraRate	NumFrames	NumMarkers	Units	OrigDataRate	OrigDataStartFrame	OrigNumFrames
200	200	7	48	mm	200	1500	2000
Frame#	Time	racr			lacr			c7			jug			rlel			rdr			llel			ldr			s2			lic			ric			lasi			rasi			rpsi			lpsi			rgt			lgt			rth1			rth2			rth3			rth4			rlfc			rsh1			rsh2			rsh3			rsh4			rlmal			rmmal			rcal			rtoe			rmt5			lth1			lth2			lth4			lth3			llfc			lsh1			lsh2			lsh3			lsh4			llmal			lmmal			lcal			ltoe			lmt5			SBIKE			LBIKE			RBIKE			
		X1	Y1	Z1	X2	Y2	Z2	X3	Y3	Z3	X4	Y4	Z4	X5	Y5	Z5	X6	Y6	Z6	X7	Y7	Z7	X8	Y8	Z8	X9	Y9	Z9	X10	Y10	Z10	X11	Y11	Z11	X12	Y12	Z12	X13	Y13	Z13	X14	Y14	Z14	X15	Y15	Z15	X16	Y16	Z16	X17	Y17	Z17	X18	Y18	Z18	X19	Y19	Z19	X20	Y20	Z20	X21	Y21	Z21	X22	Y22	Z22	X23	Y23	Z23	X24	Y24	Z24	X25	Y25	Z25	X26	Y26	Z26	X27	Y27	Z27	X28	Y28	Z28	X29	Y29	Z29	X30	Y30	Z30	X31	Y31	Z31	X32	Y32	Z32	X33	Y33	Z33	X34	Y34	Z34	X35	Y35	Z35	X36	Y36	Z36	X37	Y37	Z37	X38	Y38	Z38	X39	Y39	Z39	X40	Y40	Z40	X41	Y41	Z41	X42	Y42	Z42	X43	Y43	Z43	X44	Y44	Z44	X45	Y45	Z45	X46	Y46	Z46	X47	Y47	Z47	X48	Y48	Z48	
1500	7.5000	484.633774	1322.195758	-124.356774	506.924953	1300.907085	-439.072494	438.720551	1388.795948	-284.194566	448.297839	1223.780033	-282.667000	563.752675	1060.827125	-29.289594	728.089789	860.988507	-86.612396	555.950862	1038.108228	-549.701036	719.353801	861.946364	-453.581442	-78.312312	1142.043621	-261.431097	84.332844	1143.036321	-440.242144	90.608844	1161.890744	-116.415182	84.381840	1092.310727	-417.871664	116.033214	1119.620587	-149.187940	-46.445025	1184.120673	-215.441375	-55.089205	1182.597274	-320.771143	51.827733	1064.774260	-70.902742	16.388011	1002.729038	-458.150495	174.661058	1020.833238	-66.342797	255.960060	1006.510847	-74.981176	342.190618	984.078823	-90.550013	266.204244	1058.174128	-94.967468	425.908862	920.825610	-122.225168	346.335022	840.894134	-86.233832	292.008972	775.593094	-87.132678	228.106525	713.798737	-94.079498	325.586311	745.294612	-125.806542	135.489841	623.514955	-104.927774	171.399988	621.989515	-188.340949	75.905996	607.548315	-156.477696	324.284626	496.582873	-149.177488	219.161994	507.026630	-75.884359	67.442495	887.887015	-468.423880	128.187450	822.589458	-465.484578	167.972481	858.498008	-457.018781	178.065058	755.099424	-447.957598	226.099784	648.893867	-435.651075	172.713437	541.705478	-459.859828	161.488396	455.963134	-451.343229	148.058250	372.419296	-434.710461	219.029334	450.884628	-429.435229	128.138051	250.875975	-414.737796	0.000000	0.000000	-0.000000	83.828768	224.864367	-370.893521	354.674850	164.086901	-383.500296	246.136347	156.358349	-446.189510	-230.373591	890.504463	-256.136696	-22.360441	80.254857	-456.395203	-22.730240	80.320622	-56.154661	
1501	7.5050	483.593486	1322.126136	-123.981396	506.527002	1301.747193	-438.965474	438.806258	1389.597983	-284.413737	447.367844	1224.814865	-283.251978	562.395327	1060.498207	-30.317754	727.763750	860.994532	-87.092308	556.204599	1038.869201	-548.497459	719.612892	862.308327	-453.487111	-78.493039	1143.840068	-261.581821	83.129872	1144.279837	-440.505615	90.307301	1164.299721	-116.790553	82.763502	1093.271635	-418.136757	115.338715	1121.729916	-149.611980	-46.922959	1186.208318	-215.546324	-56.046064	1184.208762	-321.107709	50.838180	1068.309880	-70.826820	14.297408	1003.869335	-458.218432	173.641549	1024.523528	-67.182900	255.029440	1010.908337	-76.045560	341.447384	989.199478	-91.500887	264.733734	1062.453432	-96.433674	426.215827	925.891401	-123.306234	348.402134	844.534997	-87.210334	295.100307	778.367577	-87.780127	232.166287	715.564073	-94.359367	328.987089	748.476540	-126.555044	140.592143	623.921414	-104.820231	176.497263	622.575949	-188.281108	81.181112	607.666216	-156.381433	329.999123	497.607876	-149.281257	224.857855	507.624526	-76.002781	65.334986	888.619901	-468.753936	126.036176	823.223600	-465.774133	165.866197	859.040540	-457.445474	175.891642	755.718730	-448.208324	223.395796	649.207788	-435.753981	169.890083	542.339955	-460.100326	158.296753	456.634556	-451.496655	144.405563	373.150360	-434.800413	215.736013	451.328914	-429.483143	123.881431	251.863872	-414.703689	0.000000	0.000000	-0.000000	79.372535	226.223776	-370.716271	349.543379	162.484269	-383.415332	240.896179	156.146763	-446.113389	-230.371610	890.536636	-256.044224	-22.366938	80.265743	-456.405179	-22.741919	80.352750	-56.162728	
1502	7.5100	482.719350	1322.103608	-123.765924	506.165684	1302.610090	-438.784080	438.879466	1390.541341	-284.623457	446.575319	1225.829741	-283.738390	561.163109	1060.256166	-31.533226	727.519577	861.023634	-87.486498	556.491187	1039.774508	-547.380606	719.668130	862.307363	-453.184488	-78.887538	1145.620045	-261.548120	81.761231	1145.588736	-440.721682	90.085492	1166.706389	-117.086262	81.317976	1094.456248	-418.813222	114.639499	1123.821984	-150.015199	-47.180027	1188.105390	-215.836912	-57.050894	1185.791517	-321.344324	49.842656	1071.592561	-70.791188	12.185206	1005.022540	-458.263500	172.503714	1027.923851	-67.936730	253.963207	1014.994756	-77.094116	340.558899	994.033281	-92.640222	263.045658	1066.511334	-97.896222	426.390834	930.476725	-124.400273	350.309211	847.857485	-88.175392	298.017576	780.874711	-88.291770	236.013730	717.161258	-94.554004	331.802907	751.154187	-128.751824	145.401077	624.026865	-104.566685	181.474951	622.684394	-188.145178	86.031402	607.522375	-156.215689	335.276859	498.270933	-149.399050	230.165514	507.995142	-76.080170	63.162864	889.338397	-468.905672	123.892712	823.981032	-466.057220	163.740542	859.785762	-458.023677	173.807758	756.474004	-448.474225	221.004075	649.714230	-435.848684	167.458702	542.990929	-460.266898	155.372908	457.448303	-451.569090	141.157565	374.055858	-434.956466	212.783941	451.955730	-429.497799	120.031159	253.032907	-414.595849	0.000000	0.000000	-0.000000	75.257746	227.866215	-370.633020	344.770247	161.114492	-383.308413	236.081210	156.004567	-446.028160	-230.383515	890.535153	-256.019947	-22.382038	80.320992	-456.357232	-22.733284	80.356979	-56.155145	
1503	7.5150	481.850519	1322.050830	-123.849208	505.813890	1303.407683	-438.510550	438.956818	1391.348954	-284.925166	445.709640	1226.721228	-284.444806	560.104270	1060.185832	-32.950108	727.527926	861.172672	-87.743014	556.951177	1040.690355	-545.879328	719.408144	862.029920	-453.064198	-79.636748	1147.773289	-261.425339	80.965740	1146.953554	-441.486788	89.877042	1168.963021	-117.383155	79.804304	1095.695785	-419.359589	113.921061	1125.712513	-150.614883	-47.490772	1189.989109	-216.158754	-57.672608	1187.248844	-321.653185	48.746239	1074.612796	-70.833489	9.983263	1006.144805	-458.242626	171.342356	1031.046128	-68.700403	252.848715	1018.822378	-78.163227	339.531797	998.540934	-93.809920	261.297526	1070.157597	-99.478685	426.375898	934.554881	-125.425133	352.089218	850.794139	-89.045424	300.742703	783.179321	-88.804298	239.540253	718.536791	-94.634300	334.763337	753.745043	-129.278478	149.902175	623.888740	-104.298411	185.889036	622.884318	-187.964684	90.522576	607.255930	-156.008959	340.605858	498.834414	-149.529495	235.079175	508.145855	-76.084953	60.999796	890.004234	-469.068894	121.757677	824.674838	-466.323716	161.626998	860.566219	-458.665411	171.830184	757.348571	-448.632029	218.942973	650.361634	-435.992269	165.249603	543.873045	-460.452978	152.754823	458.483093	-451.696820	138.214992	375.076504	-435.003781	210.175305	452.725675	-429.594293	116.484736	254.331757	-414.600076	0.000000	0.000000	-0.000000	71.646479	229.509524	-370.348344	340.373590	159.892718	-383.228497	231.579675	156.032497	-445.883413	-230.382962	890.533104	-255.964749	-22.377448	80.344825	-456.354072	-22.735892	80.359832	-56.151876	
1504	7.5200	481.097449	1322.048294	-124.095120	505.398966	1304.305220	-438.201163	438.912404	1392.285793	-285.205637	444.949183	1227.871713	-285.050264	559.214814	1060.265764	-34.563782	727.433725	861.172184	-88.129294	557.346614	1041.695021	-544.697532	719.490396	862.010722	-452.759906	-80.251596	1150.169197	-261.159792	79.585346	1148.073693	-441.615371	89.562276	1171.052754	-117.709388	78.329616	1096.976303	-419.988217	113.268539	1127.438844	-151.189795	-47.846591	1191.843819	-216.489040	-58.183496	1188.825805	-322.079298	47.799666	1077.230533	-70.840111	7.803628	1007.298650	-458.271486	170.127089	1033.919377	-69.438414	251.662012	1022.333925	-79.209794	338.447930	1002.693750	-94.977350	259.612959	1073.477847	-101.070227	426.214282	938.212403	-126.473947	353.643669	853.388986	-89.923219	303.234291	785.099362	-89.164835	242.738921	719.695654	-94.681414	337.401505	755.932809	-129.708379	153.951729	623.694068	-104.026697	189.949945	622.734390	-187.790588	94.966193	606.792606	-155.400573	344.887886	499.105237	-149.561148	239.636045	508.132941	-76.092022	58.775531	890.667490	-469.122632	119.629092	825.421222	-466.593830	159.517566	861.335180	-459.355327	169.915543	758.176816	-448.809000	217.146561	651.175739	-436.206401	163.283347	544.852525	-460.559161	150.435699	459.562979	-451.809132	135.525002	376.249002	-435.097406	207.800659	453.686370	-429.594049	113.439906	255.643978	-414.505552	0.000000	0.000000	-0.000000	68.281811	231.346569	-370.288421	336.313222	158.970307	-383.222199	227.522870	156.260294	-445.813185	-230.371204	890.534749	-255.892990	-22.383380	80.393739	-456.327630	-22.755361	80.358919	-56.132785	
1505	7.5250	480.344043	1322.059559	-124.549874	505.040467	1305.083448	-437.909849	438.783312	1393.093363	-285.538102	444.053548	1228.679174	-285.735018	558.525572	1060.454560	-36.310819	727.402894	861.150109	-88.480866	557.772635	1042.732289	-543.501735	719.566889	862.062932	-452.488698	-80.929775	1151.817099	-261.400601	78.283718	1149.471515	-441.904151	89.287394	1172.920931	-118.074763	76.821171	1098.222858	-420.449563	112.573995	1129.038518	-151.877070	-48.292178	1193.588894	-216.755549	-58.848703	1190.294652	-322.357056	46.885214	1079.620381	-70.988900	5.622628	1008.514800	-458.295005	168.835648	1036.511110	-70.270422	250.455434	1025.530119	-80.189263	337.377380	1006.413683	-96.206103	258.023283	1076.310138	-102.718940	426.006227	941.372306	-127.457270	355.016663	855.558337	-90.698277	305.382466	786.708994	-89.569512	245.718399	720.556466	-94.684399	339.836320	757.829113	-130.094422	157.730430	623.249003	-103.685730	193.629506	622.525274	-187.490454	98.598038	606.133268	-155.358587	348.780854	499.290327	-149.561105	243.742251	507.955007	-76.057754	56.516477	891.301537	-469.075321	117.531728	826.108151	-466.890799	157.338301	862.184204	-460.072947	168.029872	759.140546	-449.046370	215.591955	652.139843	-436.462597	161.518633	546.002113	-460.782806	148.290087	460.733079	-451.963629	133.103490	377.498658	-435.176909	205.634896	454.721352	-429.655340	110.683370	257.088550	-414.535852	0.000000	0.000000	-0.000000	65.343228	233.128964	-370.208149	332.677435	158.107286	-383.097619	223.834208	156.511215	-445.737297	-230.354224	890.538946	-255.822526	-22.385052	80.396165	-456.323557	-22.741602	80.375453	-56.118787	
1506	7.5300	479.673682	1322.126851	-125.201374	504.617168	1305.975049	-437.661005	438.523177	1393.944393	-285.922724	443.166029	1229.619413	-286.449726	558.055795	1060.812500	-38.193687	727.238699	861.027749	-88.295796	558.229755	1043.767788	-542.364707	719.698774	862.139585	-452.299580	-81.612898	1153.365594	-261.580441	77.274784	1150.985159	-442.404846	89.201624	1174.505236	-118.433335	75.257330	1099.517233	-421.058406	111.854784	1130.577158	-152.551146	-48.712733	1195.226844	-217.003233	-59.586280	1191.720028	-322.518422	45.986626	1081.724350	-71.241521	3.550384	1009.587009	-458.301130	167.564591	1038.736205	-71.161419	249.320483	1028.248924	-81.191957	336.273118	1009.708233	-97.444419	256.266124	1078.939060	-104.354421	425.621782	944.154253	-128.358316	356.162165	857.367341	-91.315693	307.302764	787.956754	-89.790235	248.328777	721.121693	-94.660217	341.878435	759.307039	-130.537542	161.068932	622.705753	-103.349214	196.753019	622.144811	-187.277615	101.715029	605.393408	-155.239849	352.333806	499.477982	-149.603382	247.393183	507.707689	-75.933665	54.275584	891.873076	-469.068201	115.407069	826.878467	-467.140615	155.256943	863.010748	-460.890956	166.153169	760.004173	-449.212331	214.512710	653.207734	-436.591447	159.981138	547.142809	-460.866833	146.423963	461.990829	-452.104521	130.992542	378.791170	-435.337286	203.749057	455.854575	-429.729202	108.372407	258.427869	-414.526730	0.000000	0.000000	-0.000000	62.852298	234.877658	-370.028940	329.457624	157.312085	-383.062074	220.619197	156.806596	-445.653624	-230.352814	890.534751	-255.742173	-22.393870	80.424528	-456.296099	-22.749682	80.381474	-56.103098	
